<?xml version="1.0" encoding="iso-8859-1"?>
<!-- Generator: Adobe Illustrator 19.0.0, SVG Export Plug-In . SVG Version: 6.00 Build 0)  -->
<svg version="1.1" id="Capa_1" xmlns="http://www.w3.org/2000/svg" xmlns:xlink="http://www.w3.org/1999/xlink" x="0px" y="0px"
	 viewBox="0 0 511.999 511.999" style="enable-background:new 0 0 511.999 511.999;" xml:space="preserve">
<g>
	<g>
		<path d="M480.174,272.694c-69.428-92.312-164.053-93.287-208.241-272.212h-32.158c-27.029,109.448-64.608,144.875-131.357,199.099
			C52.258,245.203-7.13,293.596,0.698,376.847c8.658,92.036,88.992,130.247,181.25,112.746
			c44.262,28.912,102.588,29.554,147.835-0.01C496.431,521.238,554.461,371.464,480.174,272.694z M30.513,374.043
			c-6.344-67.442,43.752-108.136,96.788-151.22c68.55-55.687-18.793,4.018-12.954,133.743c1.773,39.422,12.578,77.1,37.841,106.784
			C87.499,467.835,36.672,439.539,30.513,374.043z M144.263,355.222c-5.2-115.551,69.295-170.165,111.591-300.483
			c42.28,130.259,116.791,184.937,111.594,300.483C359.87,523.586,151.891,524.807,144.263,355.222z M359.529,463.347
			c25.261-29.687,36.06-67.369,37.832-106.78c5.859-130.213-82.053-189.942-12.879-133.743
			c53.037,43.084,103.131,83.778,96.788,151.22C475.122,439.439,424.404,467.866,359.529,463.347z"/>
	</g>
</g>
<g>
</g>
<g>
</g>
<g>
</g>
<g>
</g>
<g>
</g>
<g>
</g>
<g>
</g>
<g>
</g>
<g>
</g>
<g>
</g>
<g>
</g>
<g>
</g>
<g>
</g>
<g>
</g>
<g>
</g>
</svg>
